<svg xmlns="http://www.w3.org/2000/svg" xmlns:xlink="http://www.w3.org/1999/xlink" viewBox="0 0 527.58 158.55"><defs><style>.cls-1{fill:url(#linear-gradient);}.cls-2{fill:url(#linear-gradient-2);}.cls-3{fill:url(#linear-gradient-3);}.cls-4{fill:url(#linear-gradient-4);}.cls-5{fill:url(#linear-gradient-5);}.cls-6{fill:url(#linear-gradient-6);}.cls-7{fill:url(#linear-gradient-7);}.cls-8{fill:url(#linear-gradient-8);}.cls-9{fill:url(#linear-gradient-9);}.cls-10{fill:url(#linear-gradient-10);}.cls-11{fill:url(#linear-gradient-11);}.cls-12{fill:url(#linear-gradient-12);}</style><linearGradient id="linear-gradient" x1="487.26" y1="66.23" x2="527.58" y2="66.23" gradientUnits="userSpaceOnUse"><stop offset="0" stop-color="#545557"/><stop offset="0.04" stop-color="#515254"/><stop offset="0.67" stop-color="#302d2e"/><stop offset="1" stop-color="#231f20"/></linearGradient><linearGradient id="linear-gradient-2" x1="448.21" y1="66.77" x2="499.12" y2="66.77" xlink:href="#linear-gradient"/><linearGradient id="linear-gradient-3" y1="66.23" x2="40.32" y2="66.23" gradientUnits="userSpaceOnUse"><stop offset="0" stop-color="#f2f2f3"/><stop offset="0.94" stop-color="#bcbec0"/><stop offset="1" stop-color="#e6e7e8"/></linearGradient><linearGradient id="linear-gradient-4" x1="27.02" y1="64.64" x2="77.94" y2="64.64" xlink:href="#linear-gradient-3"/><linearGradient id="linear-gradient-5" x1="401.31" y1="70.54" x2="455.57" y2="70.54" xlink:href="#linear-gradient"/><linearGradient id="linear-gradient-6" x1="68.63" y1="70.54" x2="122.89" y2="70.54" xlink:href="#linear-gradient-3"/><linearGradient id="linear-gradient-7" x1="114.42" y1="71.21" x2="167.77" y2="71.21" xlink:href="#linear-gradient-3"/><linearGradient id="linear-gradient-8" x1="155.2" y1="70.4" x2="211.11" y2="70.4" xlink:href="#linear-gradient-3"/><linearGradient id="linear-gradient-9" x1="357.33" y1="71.21" x2="410.68" y2="71.21" xlink:href="#linear-gradient"/><linearGradient id="linear-gradient-10" x1="313.39" y1="70.4" x2="369.29" y2="70.4" xlink:href="#linear-gradient"/><linearGradient id="linear-gradient-11" x1="186.37" y1="79.28" x2="259.36" y2="79.28" xlink:href="#linear-gradient-3"/><linearGradient id="linear-gradient-12" x1="260" y1="79.28" x2="332.99" y2="79.28" xlink:href="#linear-gradient"/></defs><g id="Layer_2" data-name="Layer 2"><g id="Layer_1-2" data-name="Layer 1"><path class="cls-1" d="M505.73,33.62a9.73,9.73,0,0,0-5.29,2.55,9.89,9.89,0,0,0-2.91,4.46,9.14,9.14,0,0,0,0,3.34,8.23,8.23,0,0,0,3.41,5.4c.88.62,1.34,1.09,1.34,1.38s-.39.72-.82.94c-.22.11-1,.39-1.69.64a13,13,0,0,0-3.3,1.52.79.79,0,0,0-.26.66c0,.69.18.92,1.3,1.66,2.85,1.88,4,3.11,4.82,5a20.48,20.48,0,0,1,.78,7.58,14,14,0,0,1-1.32,5.86c-.79,1.67-1.85,2.84-4.11,4.58-1,.79-1.08.87-1.31,1.9a2.15,2.15,0,0,1-1.53,1.26,8.56,8.56,0,0,0-4.93,3.74,8.74,8.74,0,0,0-1.33,3c-.38,1.61-.26,2.48.48,3.3a1.5,1.5,0,0,1,.44.71,2.11,2.11,0,0,1-.81.61c-1,.55-1.35,1-1.42,1.74-.15,1.52,1,2.17,4.65,2.7,8.41,1.21,26.55,1.05,32.7-.3,2.24-.49,3-1,3-2.21,0-.86-.43-1.41-1.57-2-.51-.26-.73-.47-.73-.69a4.35,4.35,0,0,1,.42-.5,2.46,2.46,0,0,0,.73-1.92,9.32,9.32,0,0,0-6.13-8.13c-1.33-.38-1.73-.75-1.93-1.74-.13-.69-.07-.62-2.17-2.29a10.86,10.86,0,0,1-3.77-5.27,16.56,16.56,0,0,1-.71-5.26c-.1-4.41.39-6.66,1.91-8.67a12.13,12.13,0,0,1,3.27-2.79c1.37-.93,1.54-1.09,1.68-1.48a.78.78,0,0,0-.05-.83c-.17-.35-.34-.48-1.18-.89a20.68,20.68,0,0,0-2.3-.93c-2-.69-2.45-1-2.45-1.57,0-.4.27-.69,1.3-1.41a8.46,8.46,0,0,0,3.55-7.11,6.87,6.87,0,0,0-1.59-4.47,10.25,10.25,0,0,0-7.33-4.24A7.07,7.07,0,0,0,505.73,33.62Z"/><path class="cls-2" d="M471.39,21.51c-1.46.11-1.39-.05-1.4,2.91,0,1.36,0,2.57-.07,2.71s-.29.32-.91.57a7.82,7.82,0,0,0-3.6,2.54c-.23.36-.45.45-.59.23,0-.06-.1-1.33-.14-2.79-.07-2.35-.1-2.71-.26-3a3.77,3.77,0,0,1-.33-1.07c-.14-.81-.35-1.19-.73-1.33a5.7,5.7,0,0,0-2.35.06c-1.55.3-2,.59-2.17,1.45-.06.29-.15,2.2-.2,4.23-.08,3.22-.12,3.76-.28,4.06a6.16,6.16,0,0,0-.3.79,1,1,0,0,1-.61.69c-.63.35-.92.6-1.09,1-.24.58,0,1.08.84,2a12.62,12.62,0,0,1,1,1.13,2.79,2.79,0,0,0,.73.66c.56.33.62.45.94,1.62a6.12,6.12,0,0,0,1.31,2.52c1.82,2.44,2.05,3.65,1.84,9.67-.12,3.56-.29,6.07-.64,9.93-.12,1.2-.34,3.9-.52,6-.66,7.92-.94,10.43-1.47,13.13a22.57,22.57,0,0,1-2,6.6,6.57,6.57,0,0,1-2.09,2.78,12.57,12.57,0,0,0-3,2.23c-3.56,3.47-4.86,7.87-3,10.1l.26.31-.59.37a4.43,4.43,0,0,0-1.54,1.5,3.54,3.54,0,0,0-.16,2.07c.47,1.69,3.14,2.85,8.71,3.8,7.09,1.21,18.74,1.49,27.77.69,8.38-.75,13.26-2.18,14.16-4.17a3.5,3.5,0,0,0,.07-2.06,4.07,4.07,0,0,0-1.66-1.82l-.61-.38.36-.42a3.53,3.53,0,0,0,.73-2.58,7.19,7.19,0,0,0-.84-3.41,14.21,14.21,0,0,0-5.51-5.94c-.92-.48-1.24-.84-2.09-2.24-1.9-3.19-2.81-7.62-3.67-17.74l-.53-6.21a147.86,147.86,0,0,1-.89-14.89,20.35,20.35,0,0,1,.16-3.66c.29-1.57.42-1.86,2.18-4.35a5.28,5.28,0,0,0,.81-1.8c.27-1,.36-1.13.69-1.4s.58-.52.82-.77.76-.82,1.18-1.25a3.28,3.28,0,0,0,.86-1.2c.21-.78-.08-1.3-1-1.75a1.81,1.81,0,0,1-.67-.49c0-.09-.17-.48-.32-.86-.26-.66-.26-.73-.33-4.54-.09-4.31-.11-4.44-.83-4.92a6.77,6.77,0,0,0-4-.52c-.4.21-.51.4-.63,1.21a5.09,5.09,0,0,1-.35,1.14c-.22.45-.24.66-.29,3.11,0,2.24-.07,2.67-.22,2.8s-.19.15-.38-.18a8.7,8.7,0,0,0-4.43-2.93c-.16-.05-.18-.33-.21-2.72,0-3.27.06-3.07-1.55-3.21A34.82,34.82,0,0,0,471.39,21.51Z"/><path class="cls-3" d="M18.47,33.62a9.76,9.76,0,0,0-5.3,2.55,9.94,9.94,0,0,0-2.9,4.46,9.14,9.14,0,0,0,0,3.34,8.21,8.21,0,0,0,3.4,5.4C14.56,50,15,50.46,15,50.75s-.39.72-.81.94c-.22.11-1,.39-1.7.64a13.06,13.06,0,0,0-3.29,1.52.76.76,0,0,0-.26.66c0,.69.18.92,1.3,1.66,2.85,1.88,4,3.11,4.81,5,.63,1.55-1,4.64-1.21,7.58-.16,2.62,1.5,4.19.68,5.86s-1.85,2.84-4.12,4.58c-1,.79-1.07.87-1.3,1.9a2.2,2.2,0,0,1-1.53,1.26,8.53,8.53,0,0,0-4.93,3.74,8.56,8.56,0,0,0-1.33,3c-.39,1.61-.26,2.48.48,3.3a1.59,1.59,0,0,1,.44.71,2.18,2.18,0,0,1-.82.61c-1,.55-1.34,1-1.42,1.74-.14,1.52,1,2.17,4.65,2.7,8.42,1.21,26.55,1.05,32.71-.3,2.23-.49,3-1,3-2.21,0-.86-.43-1.41-1.57-2-.51-.26-.73-.47-.73-.69a3.75,3.75,0,0,1,.41-.5,2.43,2.43,0,0,0,.74-1.92A9.32,9.32,0,0,0,33,82.48c-1.34-.38-1.73-.75-1.93-1.74-.14-.69-.08-.62-2.18-2.29a10.78,10.78,0,0,1-3.76-5.27,16.28,16.28,0,0,1-.71-5.26c-.1-4.41.39-6.66,1.9-8.67a12.3,12.3,0,0,1,3.27-2.79c1.37-.93,1.55-1.09,1.69-1.48a.8.8,0,0,0-.06-.83c-.16-.35-.33-.48-1.18-.89a19.22,19.22,0,0,0-2.3-.93c-2-.69-2.44-1-2.44-1.57,0-.4.27-.69,1.29-1.41a8.47,8.47,0,0,0,3.56-7.11,6.87,6.87,0,0,0-1.59-4.47,10.25,10.25,0,0,0-7.34-4.24A7,7,0,0,0,18.47,33.62Z"/><path class="cls-4" d="M50.2,19.39c-1.46.1-1.38-.05-1.4,2.91,0,1.36,0,2.57-.07,2.7s-.28.33-.91.58a7.94,7.94,0,0,0-3.6,2.53c-.23.37-.45.45-.58.23,0-.06-.11-1.32-.15-2.78-.06-2.35-.09-2.72-.26-3a4.12,4.12,0,0,1-.32-1.08c-.15-.8-.36-1.19-.73-1.32a5.37,5.37,0,0,0-2.35.06c-1.56.29-2,.59-2.17,1.44-.07.29-.15,2.2-.2,4.24-.09,3.22-.13,3.76-.28,4.06a6,6,0,0,0-.31.78,1,1,0,0,1-.6.69,2.14,2.14,0,0,0-1.1,1c-.24.58,0,1.08.85,2a14.51,14.51,0,0,1,1,1.13,2.47,2.47,0,0,0,.73.65c.55.34.62.45.94,1.62A6.12,6.12,0,0,0,40,40.35C41.81,42.79,42,44,41.83,50c-.11,3.55-.28,6.07-.63,9.92-.12,1.2-.35,3.91-.53,6-.65,7.93-.94,10.43-1.47,13.14a22.85,22.85,0,0,1-2,6.59,6.7,6.7,0,0,1-2.09,2.79,12.91,12.91,0,0,0-3,2.22c-3.56,3.48-4.85,7.87-3,10.11l.26.31-.6.37a4.31,4.31,0,0,0-1.53,1.5A3.62,3.62,0,0,0,27.1,105c.47,1.69,3.15,2.85,8.72,3.8,7.09,1.21,18.74,1.49,27.77.69,8.38-.76,13.25-2.19,14.15-4.17a3.45,3.45,0,0,0,.07-2.07,4,4,0,0,0-1.66-1.81l-.6-.38.35-.43a3.44,3.44,0,0,0,.73-2.57,7.21,7.21,0,0,0-.83-3.42,14.33,14.33,0,0,0-5.51-5.94c-.92-.48-1.24-.83-2.09-2.23-1.9-3.2-2.82-7.62-3.67-17.75C64.38,67,62.14,64.21,62,62.55c-.77-9,1.13-10.71,1.12-14.88A22.06,22.06,0,0,1,63.26,44c.29-1.56.43-1.86,2.18-4.34a5.07,5.07,0,0,0,.82-1.81c.27-1,.35-1.12.69-1.39s.57-.53.81-.78.76-.81,1.18-1.24a3.58,3.58,0,0,0,.87-1.2c.21-.78-.09-1.3-1-1.75a1.72,1.72,0,0,1-.67-.49c0-.1-.18-.48-.33-.86-.26-.67-.26-.73-.33-4.54-.08-4.31-.1-4.45-.82-4.93a6.85,6.85,0,0,0-4-.51c-.41.21-.51.4-.64,1.21a5.09,5.09,0,0,1-.34,1.14c-.22.45-.24.66-.29,3.11-.05,2.23-.08,2.66-.22,2.8s-.19.14-.39-.18a8.64,8.64,0,0,0-4.43-2.93c-.15-.06-.17-.34-.2-2.73-.05-3.26.06-3.07-1.56-3.2A31.5,31.5,0,0,0,50.2,19.39Z"/><path class="cls-5" d="M433.07,19a4.87,4.87,0,0,0-1.76.48,4.63,4.63,0,0,1-1,.36,4.76,4.76,0,0,0-3,1.66c-1.09,1.25-1.29,1.37-3.27,1.85-2.66.66-9.25,2.11-13.85,3.07-4.18.86-4.87,1.11-5.74,2.08a10.58,10.58,0,0,0-2.2,4.08c-.12.46-.33,1.15-.48,1.53a4.05,4.05,0,0,0-.33,2.72.88.88,0,0,0,.72.74c.41.1.86.53.86.81a1.94,1.94,0,0,1-.45.8c-.64.86-.71,1.36-.26,1.85.21.23.37.3,1.29.55a8.79,8.79,0,0,1,2.56,1.16c1.72,1,2.8,1.29,3.34.75a8,8,0,0,0,.64-1.11c.75-1.54,1.64-2.31,2.51-2.18.28,0,.39,0,.5-.08s.23-.13.74-.09a18.93,18.93,0,0,1,5.62,1.34c1.74.83,3.1,2.28,3.1,3.26,0,.61-.35,1-3.54,4.32a123,123,0,0,0-9.66,10.72c-2,2.63-2.55,3.92-2.55,6.21a9.45,9.45,0,0,0,.75,3.81,21,21,0,0,0,5.16,7,10,10,0,0,0,2.59,1.86,8.71,8.71,0,0,1,2.62,1.9,6.52,6.52,0,0,1,1.66,2.34c.87,2.25.2,4.51-2,6.7a16.6,16.6,0,0,1-2.89,2.28,13.31,13.31,0,0,0-1.14.81s0,.08.17.07c.33,0,.34.22,0,.55s-.67.44-1.86.42c-.89,0-1.05,0-1.37.17-.73.36-.79,1-.13,1.67a6.14,6.14,0,0,0,.85.67c.83.55,1.13,1.11.88,1.6-.16.3-.37.44-.94.63a7.34,7.34,0,0,0-3.79,3.5,9,9,0,0,0-.77,3.84,5.66,5.66,0,0,0,.38,3,8.55,8.55,0,0,1,.48,1.55,7.77,7.77,0,0,0,.52,1.64,1.67,1.67,0,0,1,.25.7c-.07.19-.5.48-1.71,1.14-2.05,1.14-3,1.8-3,2.09,0,.06.11.19.24.29s.24.19.19.52a.94.94,0,0,0,.16.71,1.7,1.7,0,0,0,.84.69,30.75,30.75,0,0,0,5.42,2c.47.11,1.29.33,1.82.51a15.83,15.83,0,0,0,3.53.73c.75.09,1.53.2,1.72.24a47.33,47.33,0,0,0,5.68.44,62.63,62.63,0,0,0,8,.21c1.06-.12,3.46-.3,6.05-.45a45.56,45.56,0,0,0,4.63-.41,52,52,0,0,0,6.94-1.28c.38-.11,1.06-.3,1.53-.41l1.29-.33a12.73,12.73,0,0,0,3.61-2,1.5,1.5,0,0,0,0-1.93c-.36-.53-1.07-1-2.91-2.12a13.58,13.58,0,0,1-1.58-1s.15-.51.33-1.05a14,14,0,0,0,.7-5.32,7.89,7.89,0,0,0-1.88-5.46,11.51,11.51,0,0,0-3.76-3l-.78-.43.88-.93c1.18-1.26,1.53-1.71,1.53-1.92s-.68-.8-3-2A23.56,23.56,0,0,1,440,89.16c-2.12-1.79-3.12-3.87-2.85-5.91a5.47,5.47,0,0,1,1.18-2.9,3,3,0,0,0,.73-1.59c.06-.54.21-.71,1-1.15a14.57,14.57,0,0,0,1.33-.93A42.78,42.78,0,0,1,447,73.07a14,14,0,0,0,3.4-2.34,11.13,11.13,0,0,0,1.89-2c.56-.76.72-1.1.72-1.57,0-.65-.27-1.08-1.57-2.54a12.37,12.37,0,0,1-2.83-5.08,10.56,10.56,0,0,1-.16-2.7c0-1.11.05-2.31.09-2.65.08-.57.12-.67.34-.85a1,1,0,0,0,.12-1.29l-.21-.44a5.08,5.08,0,0,1,.52-.55l.53-.52,0-.73c0-.7,0-.73.27-1.16s.28-.46.29-1.29a2.77,2.77,0,0,1,.18-1.23c.4-.9.8-4.42.94-8.16.06-1.78,0-2.15-.45-2.55s-.36-.39,0-.65a1.44,1.44,0,0,0,.44-.95,1.78,1.78,0,0,0-.6-1.13,2.79,2.79,0,0,1-.42-.51c-.11-.21-.1-.25,0-.48.37-.63.27-1.13-.36-1.84-.47-.52-.47-.54-.36-.83a1.31,1.31,0,0,0-.41-1.2,1,1,0,0,0-.46-.3c-.37,0-.42-.08-.37-.6a1.17,1.17,0,0,0-.14-.86.9.9,0,0,0-.46-.45l-.27-.09.39-.31c.94-.77,1.09-1.4.53-2.27-.45-.68-.63-.75-2.22-.83-1.41-.07-1.65-.13-2.28-.53a3.58,3.58,0,0,0-1.41-.63,4.19,4.19,0,0,1-1-.39,2.2,2.2,0,0,0-1.48-.34,2.1,2.1,0,0,1-1.77-.57c-.91-.67-1.06-.71-3.19-.73C434.2,19,433.23,19,433.07,19Z"/><path class="cls-6" d="M89,19c-2.13,0-2.29.06-3.19.73a2.11,2.11,0,0,1-1.77.57,2.24,2.24,0,0,0-1.49.34,3.91,3.91,0,0,1-1,.39,3.55,3.55,0,0,0-1.4.63,3.63,3.63,0,0,1-2.28.53c-1.6.08-1.77.15-2.22.83-.56.87-.41,1.5.53,2.27l.38.31-.26.09a.87.87,0,0,0-.46.45,1.22,1.22,0,0,0-.15.86c.06.52,0,.6-.36.6a1,1,0,0,0-.46.3,1.28,1.28,0,0,0-.41,1.2c.11.29.1.31-.36.83-.63.71-.73,1.21-.36,1.84.14.23.15.27,0,.48a2.68,2.68,0,0,1-.41.51,1.78,1.78,0,0,0-.6,1.13,1.47,1.47,0,0,0,.43.95c.33.26.33.34,0,.65s-.52.77-.45,2.55c.13,3.74.54,7.26.94,8.16a2.77,2.77,0,0,1,.18,1.23c0,.83,0,.87.29,1.29s.28.46.26,1.16l0,.73.52.52a5.86,5.86,0,0,1,.53.55l-.21.44a1,1,0,0,0,.12,1.29c.22.18.26.28.34.85,0,.34.08,1.54.09,2.65a11.09,11.09,0,0,1-.16,2.7,12.49,12.49,0,0,1-2.83,5.08c-1.3,1.46-1.57,1.89-1.57,2.54,0,.47.16.81.72,1.57a10.45,10.45,0,0,0,1.89,2,14,14,0,0,0,3.4,2.34,43.45,43.45,0,0,1,5.63,3.61,13.31,13.31,0,0,0,1.33.93c.75.44.89.61,1,1.15a3,3,0,0,0,.73,1.59A5.47,5.47,0,0,1,87,83.25c.26,2-.74,4.12-2.86,5.91a23.14,23.14,0,0,1-4.72,2.91c-2.31,1.16-3,1.61-3,2S76.8,94.69,78,96l.88.93-.78.43a11.51,11.51,0,0,0-3.76,3,7.84,7.84,0,0,0-1.88,5.46,14,14,0,0,0,.7,5.32c.18.54.32,1,.32,1.05a13.58,13.58,0,0,1-1.58,1c-1.84,1.08-2.54,1.59-2.9,2.12a1.5,1.5,0,0,0,0,1.93,12.59,12.59,0,0,0,3.61,2l1.29.33c.46.11,1.15.3,1.53.41a51.74,51.74,0,0,0,6.93,1.28,45.51,45.51,0,0,0,4.64.41c2.59.15,5,.33,6,.45a62.63,62.63,0,0,0,8-.21,47.33,47.33,0,0,0,5.68-.44c.19,0,1-.15,1.72-.24a16,16,0,0,0,3.53-.73c.53-.18,1.34-.4,1.81-.51a30.57,30.57,0,0,0,5.43-2,1.7,1.7,0,0,0,.84-.69.94.94,0,0,0,.16-.71c0-.33,0-.37.18-.52s.25-.23.25-.29c0-.29-1-1-3-2.09-1.2-.66-1.63-1-1.71-1.14a2,2,0,0,1,.25-.7,7.7,7.7,0,0,0,.53-1.64,7.81,7.81,0,0,1,.48-1.55,5.76,5.76,0,0,0,.38-3,9,9,0,0,0-.77-3.84,7.34,7.34,0,0,0-3.79-3.5c-.58-.19-.79-.33-.94-.63-.26-.49,0-1,.88-1.6a7.63,7.63,0,0,0,.85-.67c.66-.63.6-1.31-.13-1.67-.33-.16-.49-.17-1.37-.17-1.2,0-1.51,0-1.87-.42s-.31-.58,0-.55c.13,0,.2,0,.17-.07s-.54-.41-1.15-.81a16.1,16.1,0,0,1-2.88-2.28c-2.18-2.19-2.85-4.45-2-6.7a6.36,6.36,0,0,1,1.65-2.34,8.88,8.88,0,0,1,2.63-1.9,9.84,9.84,0,0,0,2.58-1.86,20.9,20.9,0,0,0,5.16-7,9.45,9.45,0,0,0,.75-3.81c0-2.29-.53-3.58-2.54-6.21a123,123,0,0,0-9.66-10.72c-3.19-3.28-3.54-3.71-3.54-4.32,0-1,1.36-2.43,3.09-3.26A19,19,0,0,1,110.32,40c.52,0,.63,0,.74.09s.22.12.5.08c.88-.13,1.76.64,2.51,2.18a6.84,6.84,0,0,0,.65,1.11c.54.54,1.62.29,3.34-.75a8.67,8.67,0,0,1,2.56-1.16c.92-.25,1.07-.32,1.29-.55.45-.49.38-1-.27-1.85a2,2,0,0,1-.44-.8c0-.28.44-.71.86-.81a.87.87,0,0,0,.71-.74,3.94,3.94,0,0,0-.33-2.72c-.14-.38-.35-1.07-.47-1.53a10.58,10.58,0,0,0-2.2-4.08c-.88-1-1.56-1.22-5.75-2.08-4.59-1-11.18-2.41-13.84-3.07-2-.48-2.18-.6-3.28-1.85a4.76,4.76,0,0,0-3-1.66,4.75,4.75,0,0,1-1-.36A4.92,4.92,0,0,0,91.12,19C91,19,90,19,89,19Z"/><path class="cls-7" d="M139.65,11.15a3.92,3.92,0,0,0-2.94,3.34c-.16,1,.11,1.6,1,2.64a4.36,4.36,0,0,1,.81,1.11A19,19,0,0,1,137,22a42,42,0,0,1-4.23,6.31c-3,3.9-4.64,6.55-5.18,8.59a8.88,8.88,0,0,0,0,4,24.47,24.47,0,0,0,4,6.79c1.47,2,1.52,2.3.4,2.67s-1.37,1.29-.7,1.86a2.66,2.66,0,0,0,.82.43c.66.17.9.49,1,1.27.1,1,0,1.29-1,1.63-.44.17-1.11.46-1.5.65-.79.39-.85.49-1.19,2-.25,1.07-.56,1.5-1.13,1.62a1.63,1.63,0,0,0-1.31,2.47,2.85,2.85,0,0,0,2.05.92c.89.12,1.15.35,1.26,1.13s.76,1.51,2.06,2.11a4.3,4.3,0,0,1,1.24.79c.58.88.54,8.75-.07,16.25a40.77,40.77,0,0,1-4.11,15.28,27.22,27.22,0,0,1-3.74,5.81c-1.19,1.44-1.49,1.94-1.49,2.44a2.84,2.84,0,0,1-.67,1.58,3.84,3.84,0,0,1-.91.62,10.82,10.82,0,0,0-2.76,2c-3.6,3.43-5.07,7.93-3.41,10.41.33.49.39.65.27.73a6.08,6.08,0,0,0-1.81,1.49,2.18,2.18,0,0,0-.42,1.4,2.4,2.4,0,0,0,.81,2.28c1.92,1.76,7.51,3,17,3.68,2.88.22,14.82.22,17.63,0,9.26-.7,14.38-1.76,16.75-3.46a2.51,2.51,0,0,0,1.11-2.25c0-1.26-.48-2-1.82-2.85-.32-.19-.59-.37-.62-.39s.06-.17.21-.33a4.48,4.48,0,0,0,.89-2.31,9.51,9.51,0,0,0-1.87-5.79,15.38,15.38,0,0,0-5.36-4.9,2.25,2.25,0,0,1-1.15-1.74c-.11-.85-.31-1.2-1.52-2.66A33.08,33.08,0,0,1,150.16,92c-1.07-3.79-1.39-6.1-1.78-13.41a63.55,63.55,0,0,1-.15-8c.08-1.86-1.81-2.92-1.7-3.16s2.45-.51,3.2-.87c1.69-.84,2-1.14,2.25-2.49.11-.52.36-.68,1.13-.78,1.44-.17,2.35-.81,2.35-1.66a1.58,1.58,0,0,0-1.41-1.7c-.78-.19-1-.56-1.33-2s-.51-1.52-2-2.09-1.59-.68-1.59-1.63.24-1.35,1-1.54c.6-.15,1.2-.7,1.2-1.12s-.59-1-1.2-1.19c-1-.4-.95-.73.74-3a25.24,25.24,0,0,0,3.59-6.07,4.91,4.91,0,0,0,.33-2.34,6.07,6.07,0,0,0-.42-2.72c-.72-2.11-1.73-3.75-4.69-7.57-3.17-4.11-4.83-6.88-5.76-9.55l-.35-1,.73-.8c1-1.07,1.27-1.69,1.18-2.71a3.91,3.91,0,0,0-3.19-3.54A4.64,4.64,0,0,0,139.65,11.15Z"/><path class="cls-8" d="M181.91.41a2.76,2.76,0,0,0-1.22,1.14,4,4,0,0,0-.21,1.68V4.49l-.44.8c-.24.44-1.17,1.85-2.07,3.16l-1.63,2.36-.45-.7c-.24-.37-1.23-2-2.2-3.66s-1.86-3.11-2-3.28-.25-.3-.4-.16a21.87,21.87,0,0,0-1.89,3.6c-.46,1-1,2.17-1.21,2.57-.38.72-.4.73-.61.55s-1.46-1.75-3-3.65c-2.65-3.32-3.12-3.87-3.12-3.66s.68,4.66,1.8,11.65c.83,5.19,1.3,7.85,1.4,7.91a1,1,0,0,0,.44.1c.39,0,.7.3.84.84.07.23.27,1.4.45,2.61a34.1,34.1,0,0,0,1.65,7.21,23,23,0,0,0,5.56,9.19,5,5,0,0,1,.88,1.07,67.7,67.7,0,0,0-9.23,5.65l-5.21,5.54v1.29c0,1.58.1,2,.71,2.63.36.4,4.4,3.63,6.4,5.13.15.11.09.17-.37.37a4.68,4.68,0,0,0-2,1.23,4.08,4.08,0,0,0,.48,5.81c.93.67,1.8.82,5.42.94,3.24.11,3.2.1,3,1.19-.43,2-4.28,18.72-8.8,38.22-2.95,12.67-3.76,16.19-4,17.19-.27,1.23-.16,1.13-1.72,1.49-2.21.51-3.11,1.31-3.63,3.24-.22.77-.24,1.23-.29,4.23l-.05,3.38h55.91v-2.84c0-1.57-.06-3.22-.12-3.68-.4-2.9-1.39-3.88-4.44-4.43a8.49,8.49,0,0,1-1.2-.26c-.09-.09-10.52-43.93-13.09-54.95-.3-1.35-.53-2.48-.5-2.52a10.37,10.37,0,0,1,3-.23,25.27,25.27,0,0,0,4.63-.39,3.56,3.56,0,0,0,2.74-3.57,3.41,3.41,0,0,0-.87-2.68,4.23,4.23,0,0,0-2.1-1.32,7,7,0,0,1-.84-.33s1.07-.86,2.39-1.88c4.85-3.76,4.68-3.55,4.8-5.79l.06-1.42-5.84-4.5-7.31-5.62L190.93,43l.81-.83a23,23,0,0,0,4.4-6.2A31.34,31.34,0,0,0,199,26a12.81,12.81,0,0,1,1-3.94c.48-.7,1.2-4.23,2.51-12.17.88-5.36,1.18-7.35,1.12-7.41A43.13,43.13,0,0,0,200,7.15c-1.09,1.46-2,2.67-2.07,2.67s-.6-1.31-1.24-2.89a29,29,0,0,0-2.08-4.69c-.12,0-.8,1.08-2.64,4.22-1.72,2.94-2.41,4-2.64,4.18s-1-.86-2.55-2.86c-2.08-2.76-2.26-3.19-1.82-4.21a2,2,0,0,0-.12-2A2.59,2.59,0,0,0,181.91.41Z"/><path class="cls-9" d="M382.56,11.15a3.93,3.93,0,0,0-2.95,3.34c-.15,1,.12,1.6,1,2.64a4.22,4.22,0,0,1,.8,1.11,18.84,18.84,0,0,1-1.52,3.8,42.23,42.23,0,0,1-4.24,6.31c-3,3.9-4.63,6.55-5.17,8.59a8.88,8.88,0,0,0,0,4,24.22,24.22,0,0,0,4,6.79c1.47,2,1.52,2.3.39,2.67s-1.36,1.29-.69,1.86a2.56,2.56,0,0,0,.82.43c.66.17.9.49,1,1.27.1,1-.06,1.29-1,1.63-.44.17-1.11.46-1.51.65-.78.39-.84.49-1.18,2-.26,1.07-.56,1.5-1.13,1.62a1.63,1.63,0,0,0-1.31,2.47,2.84,2.84,0,0,0,2,.92c.9.12,1.15.35,1.27,1.13s.76,1.51,2.06,2.11a4.3,4.3,0,0,1,1.24.79c.58.88.54,8.75-.07,16.25a40.78,40.78,0,0,1-4.12,15.28,26.84,26.84,0,0,1-3.74,5.81c-1.18,1.44-1.49,1.94-1.49,2.44a2.77,2.77,0,0,1-.67,1.58,3.75,3.75,0,0,1-.9.62,10.82,10.82,0,0,0-2.76,2c-3.6,3.43-5.08,7.93-3.41,10.41.33.49.39.65.27.73a6.08,6.08,0,0,0-1.81,1.49,2.18,2.18,0,0,0-.42,1.4,2.4,2.4,0,0,0,.81,2.28c1.92,1.76,7.5,3,17,3.68,2.88.22,14.82.22,17.62,0,9.26-.7,14.39-1.76,16.75-3.46a2.52,2.52,0,0,0,1.12-2.25,3.09,3.09,0,0,0-1.82-2.85c-.32-.19-.6-.37-.62-.39s.06-.17.21-.33a4.48,4.48,0,0,0,.89-2.31,9.51,9.51,0,0,0-1.87-5.79,15.38,15.38,0,0,0-5.36-4.9A2.22,2.22,0,0,1,401,107.3c-.11-.85-.31-1.2-1.53-2.66A33.21,33.21,0,0,1,393.07,92c-1.08-3.79-1.39-6.1-1.78-13.41a66.15,66.15,0,0,1-.16-8,15.34,15.34,0,0,1,.31-3.16c.12-.27.45-.51,1.2-.87,1.69-.84,2-1.14,2.25-2.49.11-.52.36-.68,1.13-.78,1.44-.17,2.35-.81,2.35-1.66a1.58,1.58,0,0,0-1.41-1.7c-.79-.19-1-.56-1.33-2s-.52-1.52-2-2.09S392,55.2,392,54.25s.24-1.35,1-1.54,1.2-.7,1.2-1.12-.58-1-1.2-1.19c-1-.4-.94-.73.75-3a25.24,25.24,0,0,0,3.59-6.07,4.94,4.94,0,0,0,.32-2.34,6.08,6.08,0,0,0-.41-2.72c-.72-2.11-1.73-3.75-4.69-7.57-3.17-4.11-4.84-6.88-5.76-9.55l-.35-1,.73-.8a3.11,3.11,0,0,0,1.17-2.71,3.89,3.89,0,0,0-3.18-3.54A4.64,4.64,0,0,0,382.56,11.15Z"/><path class="cls-10" d="M340.09.41a2.76,2.76,0,0,0-1.22,1.14,4.21,4.21,0,0,0-.21,1.68V4.49l-.43.8c-.24.44-1.18,1.85-2.07,3.16l-1.64,2.36-.45-.7c-.24-.37-1.22-2-2.2-3.66s-1.86-3.11-2-3.28-.26-.3-.41-.16a22.2,22.2,0,0,0-1.88,3.6c-.46,1-1,2.17-1.22,2.57-.38.72-.39.73-.61.55s-1.46-1.75-3-3.65c-2.66-3.32-3.13-3.87-3.13-3.66s.68,4.66,1.8,11.65c.83,5.19,1.3,7.85,1.4,7.91a1,1,0,0,0,.44.1c.4,0,.7.3.85.84.06.23.26,1.4.44,2.61a34.1,34.1,0,0,0,1.65,7.21,23.16,23.16,0,0,0,5.56,9.19,5,5,0,0,1,.88,1.07s-3.28,2.59-7.23,5.65l-7.21,5.54v1.29c0,1.58.1,2,.71,2.63.36.4,4.41,3.63,6.4,5.13.15.11.09.17-.37.37a4.68,4.68,0,0,0-2,1.23,4.08,4.08,0,0,0,.49,5.81c.92.67,1.79.82,5.41.94,3.24.11,3.2.1,3,1.19-.43,2-4.27,18.72-8.8,38.22-2.95,12.67-3.76,16.19-4,17.19-.27,1.23-.16,1.13-1.72,1.49-2.21.51-3.11,1.31-3.62,3.24-.22.77-.25,1.23-.3,4.23l0,3.38h55.9v-2.84c0-1.57-.05-3.22-.12-3.68-.39-2.9-1.39-3.88-4.44-4.43a8.9,8.9,0,0,1-1.2-.26c-.09-.09-10.52-43.93-13.09-54.95-.3-1.35-.53-2.48-.5-2.52a10.43,10.43,0,0,1,3-.23,25.27,25.27,0,0,0,4.63-.39,3.55,3.55,0,0,0,2.74-3.57,3.37,3.37,0,0,0-.87-2.68,4.19,4.19,0,0,0-2.1-1.32,7,7,0,0,1-.84-.33s1.07-.86,2.39-1.88c4.85-3.76,4.68-3.55,4.8-5.79l.06-1.42-5.84-4.5-7.3-5.62L349.11,43l.81-.83a23,23,0,0,0,4.4-6.2A31.34,31.34,0,0,0,357.23,26a12.61,12.61,0,0,1,.94-3.94c.48-.7,1.2-4.23,2.51-12.17.89-5.36,1.18-7.35,1.13-7.41a40.14,40.14,0,0,0-3.67,4.65c-1.1,1.46-2,2.67-2.08,2.67s-.6-1.31-1.23-2.89a28.36,28.36,0,0,0-2.09-4.69c-.12,0-.8,1.08-2.64,4.22-1.72,2.94-2.41,4-2.64,4.18s-1-.86-2.55-2.86c-2.08-2.76-2.26-3.19-1.82-4.21a2,2,0,0,0-.12-2A2.59,2.59,0,0,0,340.09.41Z"/><path class="cls-11" d="M220.86.16a2.9,2.9,0,0,0-2.12,1.66c-.26.64-.26.76,0,2.38a8.11,8.11,0,0,1,.16,2c-.07.22-.28.24-1.93.15-2.17-.14-2.59,0-3.13,1-.3.54-.34.85-.34,2.2a4.5,4.5,0,0,0,.36,2.29c.57,1.16,1,1.36,3.08,1.45s2-.08,1.11,2.2a10.05,10.05,0,0,0-.72,2.5c-.07.62-.19,1.06-.33,1.13-1.85,1-2.35,2.29-1.37,3.45.41.5.43.5-1,.74-.54.09-1.81.38-2.83.62-4.37,1.06-7.1,2.54-8,4.29-.71,1.44-.35,5,1,9.56a78.22,78.22,0,0,0,5.93,14.13,11.73,11.73,0,0,1,.88,1.8c0,.42-.27.6-2,1.33a10.78,10.78,0,0,0-2,1.09A4.89,4.89,0,0,0,207,58c-.5,2-.63,2.18-1.82,2.5a4,4,0,0,0-1.27.59,3.15,3.15,0,0,0-.69,2c.23,1,1.58,1.86,3.16,2,1.26.13,1.47.31,1.77,1.49.33,1.39.93,2,2.86,2.9,1.13.54,1.55.81,1.69,1.13.88,1.93.46,19.15-.66,26.63a55,55,0,0,1-4.92,16,37.64,37.64,0,0,1-5.65,8.72c-1.39,1.68-1.52,1.9-1.75,3.17s-.7,2-2.39,2.94a18.22,18.22,0,0,0-4.31,3.41c-4.58,4.94-6.09,10.82-3.56,13.83l.37.44-.85.53a6.21,6.21,0,0,0-2.2,2.15,5.06,5.06,0,0,0-.24,3c.67,2.42,4.5,4.08,12.49,5.44,10.17,1.74,26.87,2.14,39.81,1,12-1.08,19-3.13,20.29-6a4.94,4.94,0,0,0,.11-3,5.82,5.82,0,0,0-2.38-2.61l-.87-.54.51-.61c.78-.91,1.05-1.85,1.05-3.7a10.37,10.37,0,0,0-1.2-4.89,20.78,20.78,0,0,0-7.86-8.5c-1.7-.91-2.15-1.48-2.39-3-.2-1.26-.2-1.24-1.68-3a36.83,36.83,0,0,1-5.56-8.53,55.83,55.83,0,0,1-5.33-18.53,183.4,183.4,0,0,1-.84-18.63c0-2.35.15-4.6.24-5,.19-.93.55-1.32,1.59-1.72a7.12,7.12,0,0,0,2.69-1.78,5.24,5.24,0,0,0,.51-1.38c.28-1.12.43-1.24,2-1.46a3.42,3.42,0,0,0,2.54-1.28c.53-.72.54-1.07.12-2a2.46,2.46,0,0,0-2-1.42c-.83-.16-1-.49-1.71-3.35-.21-.88-.61-1.21-2.29-1.87-1.45-.57-2.18-1-2.18-1.33a4.67,4.67,0,0,1,.45-1c4.54-8.3,7.67-17.31,7.69-22.22,0-1.57,0-1.87-.32-2.39-1-1.95-4.68-3.67-10-4.7-2.22-.45-2.1-.38-1.72-.91.77-1.1.47-2.07-.95-3.13l-.82-.6-.06-.94a8.13,8.13,0,0,0-.69-2.5c-.9-2.2-.93-2.11.87-2.11s2.26-.17,3-1a3.28,3.28,0,0,0,.91-2.51,4.67,4.67,0,0,0-.9-3l-.43-.48H229a11.12,11.12,0,0,1-2.22-.12,7.44,7.44,0,0,1,.17-1.8,9.24,9.24,0,0,0,.16-2.23c-.25-1.37-1.57-2.09-4-2.15A8.32,8.32,0,0,0,220.86.16Z"/><path class="cls-12" d="M294.49.16a2.9,2.9,0,0,0-2.13,1.66c-.25.64-.25.76,0,2.38a8.35,8.35,0,0,1,.17,2c-.08.22-.29.24-1.93.15-2.17-.14-2.59,0-3.13,1a3.74,3.74,0,0,0-.35,2.2,4.5,4.5,0,0,0,.36,2.29c.57,1.16,1,1.36,3.09,1.45s2-.08,1.1,2.2A9.57,9.57,0,0,0,291,18c-.08.62-.2,1.06-.33,1.13-1.86,1-2.35,2.29-1.38,3.45.42.5.43.5-1,.74-.54.09-1.81.38-2.83.62-4.37,1.06-7.11,2.54-8,4.29-.7,1.44-.34,5,1,9.56a79.68,79.68,0,0,0,5.93,14.13,11.73,11.73,0,0,1,.88,1.8c0,.42-.27.6-2,1.33a10.59,10.59,0,0,0-2,1.09,5,5,0,0,0-.69,1.86c-.49,2-.63,2.18-1.81,2.5a4,4,0,0,0-1.27.59,3.09,3.09,0,0,0-.69,2c.22,1,1.57,1.86,3.16,2,1.25.13,1.46.31,1.76,1.49.33,1.39.93,2,2.86,2.9,1.14.54,1.56.81,1.69,1.13.88,1.93.47,19.15-.66,26.63a54.35,54.35,0,0,1-4.92,16,37.6,37.6,0,0,1-5.64,8.72c-1.39,1.68-1.53,1.9-1.75,3.17s-.71,2-2.4,2.94a18.43,18.43,0,0,0-4.31,3.41c-4.58,4.94-6.09,10.82-3.56,13.83l.38.44-.86.53a6.21,6.21,0,0,0-2.2,2.15,5.14,5.14,0,0,0-.24,3c.68,2.42,4.51,4.08,12.5,5.44,10.16,1.74,26.86,2.14,39.8,1,12-1.08,19-3.13,20.3-6a4.94,4.94,0,0,0,.1-3,5.82,5.82,0,0,0-2.38-2.61l-.87-.54.51-.61c.78-.91,1.05-1.85,1.05-3.7a10.37,10.37,0,0,0-1.2-4.89,20.76,20.76,0,0,0-7.85-8.5c-1.71-.91-2.16-1.48-2.4-3-.19-1.26-.19-1.24-1.67-3a36.87,36.87,0,0,1-5.57-8.53,56.06,56.06,0,0,1-5.33-18.53,186.34,186.34,0,0,1-.84-18.63c.05-2.35.15-4.6.24-5a2.06,2.06,0,0,1,1.59-1.72,7,7,0,0,0,2.69-1.78,5.24,5.24,0,0,0,.51-1.38c.29-1.12.44-1.24,2-1.46a3.46,3.46,0,0,0,2.55-1.28c.52-.72.54-1.07.12-2a2.47,2.47,0,0,0-2-1.42c-.82-.16-1-.49-1.7-3.35-.21-.88-.62-1.21-2.29-1.87-1.46-.57-2.19-1-2.19-1.33a4.67,4.67,0,0,1,.45-1c4.55-8.3,7.68-17.31,7.69-22.22,0-1.57,0-1.87-.31-2.39-1-1.95-4.69-3.67-10-4.7-2.21-.45-2.09-.38-1.72-.91.78-1.1.48-2.07-.94-3.13l-.83-.6-.06-.94a8.35,8.35,0,0,0-.68-2.5c-.9-2.2-.93-2.11.86-2.11s2.26-.17,3-1a3.28,3.28,0,0,0,.91-2.51,4.73,4.73,0,0,0-.89-3l-.44-.48h-2.08a11,11,0,0,1-2.21-.12,7.16,7.16,0,0,1,.16-1.8,8.89,8.89,0,0,0,.17-2.23c-.26-1.37-1.57-2.09-4-2.15A8.28,8.28,0,0,0,294.49.16Z"/></g></g></svg>